<?xml version="1.0" standalone="no"?>
<!DOCTYPE svg PUBLIC "-//W3C//DTD SVG 20010904//EN"
 "http://www.w3.org/TR/2001/REC-SVG-20010904/DTD/svg10.dtd">
<svg version="1.0" xmlns="http://www.w3.org/2000/svg"
 width="150.000000pt" height="150.000000pt" viewBox="0 0 150.000000 150.000000"
 preserveAspectRatio="xMidYMid meet">

<g transform="translate(0.000000,150.000000) scale(0.100000,-0.100000)"
fill="#000000" stroke="none">
<path d="M674 1440 c-216 -45 -346 -284 -266 -485 19 -46 334 -595 342 -595 5
1 223 376 307 528 57 103 71 184 49 272 -31 119 -97 201 -201 251 -67 31 -163
44 -231 29z m174 -219 c89 -63 95 -195 13 -264 -142 -119 -345 38 -261 203 18
35 54 68 90 83 33 14 126 1 158 -22z"/>
<path d="M442 590 c-40 -11 -104 -36 -142 -56 -256 -134 -191 -344 133 -438
304 -88 712 -31 863 120 110 109 66 240 -109 323 -71 34 -189 71 -225 71 -13
0 -46 -59 -38 -68 3 -3 46 -15 94 -28 105 -26 176 -60 220 -105 86 -88 -3
-186 -223 -245 -102 -28 -428 -28 -530 0 -100 27 -166 58 -214 101 -34 31 -41
44 -41 74 0 71 92 135 252 175 48 13 91 25 94 28 10 11 -26 68 -44 67 -9 0
-50 -9 -90 -19z"/>
</g>
</svg>
